<!-- Generated by IcoMoon.io -->
<svg version="1.1" xmlns="http://www.w3.org/2000/svg" width="25" height="25" viewBox="0 0 768 768">
<g id="icomoon-ignore">
</g>
<path fill="#fff" d="M690.016 212.384c9.184 48.928 14.336 105.44 13.984 164 0.608 48.896-3.936 104.544-13.984 160.672-1.824 6.656-4.8 12.896-8.704 18.4-7.264 10.272-17.856 18.080-30.368 21.6-19.328 5.152-68.992 8.8-124.064 10.912-71.36 2.752-142.88 2.752-142.88 2.752s-71.52 0-142.88-2.72c-55.072-2.112-104.736-5.728-123.712-10.816-6.56-1.824-12.672-4.768-18.112-8.576-9.952-7.040-17.6-17.152-21.44-29.536-9.12-48.832-14.208-105.152-13.856-163.52-0.672-49.28 3.872-105.344 13.984-161.92 1.824-6.656 4.8-12.896 8.704-18.4 7.264-10.272 17.856-18.080 30.368-21.6 19.328-5.152 68.992-8.8 124.064-10.912 71.36-2.72 142.88-2.72 142.88-2.72s71.52 0 142.912 2.496c55.008 1.92 105.024 5.216 123.392 9.696 7.008 2.016 13.472 5.28 19.136 9.568 9.824 7.424 17.216 17.952 20.576 30.656zM752.32 197.664c-6.944-27.712-22.976-50.88-44.256-66.976-11.936-9.024-25.472-15.808-39.968-20-28.736-7.040-86.272-10.336-138.944-12.16-72.544-2.528-145.152-2.528-145.152-2.528s-72.704 0-145.312 2.784c-52.544 2.016-110.4 5.6-138.144 13.024-27.968 7.904-50.592 24.64-66.048 46.4-8.64 12.192-15.008 25.952-18.784 40.576-0.192 0.768-0.352 1.568-0.48 2.272-10.976 60.736-15.968 121.376-15.232 175.392-0.384 61.568 5.152 122.592 15.264 176.064 0.192 0.992 0.416 1.984 0.672 2.816 7.84 27.52 24.64 50.144 46.432 65.536 11.424 8.064 24.224 14.176 37.824 17.952 28.128 7.52 85.952 11.104 138.496 13.12 72.608 2.784 145.312 2.784 145.312 2.784s72.704 0 145.312-2.784c52.544-2.016 110.368-5.6 138.144-13.024 27.936-7.904 50.592-24.64 66.016-46.4 8.64-12.192 15.040-25.952 18.784-40.544 0.192-0.8 0.384-1.6 0.48-2.272 10.88-60.288 15.872-120.48 15.232-174.080 0.384-61.6-5.152-122.656-15.264-176.128-0.128-0.64-0.256-1.28-0.384-1.824zM344 425.632v-99.264l87.264 49.632zM327.808 508.448l184-104.64c15.36-8.736 20.736-28.288 12-43.648-2.976-5.248-7.232-9.344-12-12l-184-104.64c-15.36-8.736-34.912-3.36-43.648 12-2.88 5.056-4.224 10.56-4.192 15.808v209.28c0 17.664 14.336 32 32 32 5.824 0 11.264-1.568 15.808-4.192z"></path>
</svg>
