<?xml version="1.0" encoding="UTF-8" standalone="no"?>
<svg
   xmlns:dc="http://purl.org/dc/elements/1.1/"
   xmlns:cc="http://creativecommons.org/ns#"
   xmlns:rdf="http://www.w3.org/1999/02/22-rdf-syntax-ns#"
   xmlns:svg="http://www.w3.org/2000/svg"
   xmlns="http://www.w3.org/2000/svg"
   viewBox="0 0 209.17332 228.54668"
   height="228.54668"
   width="209.17332"
   xml:space="preserve"
   id="svg2"
   version="1.1"><metadata
     id="metadata8"><rdf:RDF><cc:Work
         rdf:about=""><dc:format>image/svg+xml</dc:format><dc:type
           rdf:resource="http://purl.org/dc/dcmitype/StillImage" /></cc:Work></rdf:RDF></metadata><defs
     id="defs6" /><g
     transform="matrix(1.3333333,0,0,-1.3333333,0,228.54667)"
     id="g10"><g
       transform="scale(0.1)"
       id="g12"><path
         id="path14"
         style="fill:#ee2630;fill-opacity:1;fill-rule:nonzero;stroke:none"
         d="M 784.879,1426.71 1281.95,565.059 H 287.77 Z" /><path
         id="path16"
         style="fill:#f9a612;fill-opacity:1;fill-rule:nonzero;stroke:none"
         d="M 710.801,828.461 H 677.02 c -4.711,0 -9.247,-3.82 -10.082,-8.531 L 638.551,664.551 C 637.699,659.82 640.84,656 645.57,656 h 33.801 c 4.711,0 9.246,3.82 10.102,8.551 l 28.371,155.379 c 0.851,4.711 -2.293,8.515 -7.043,8.531" /><path
         id="path18"
         style="fill:#f9a612;fill-opacity:1;fill-rule:nonzero;stroke:none"
         d="m 731.063,892.586 5.32,29.437 c 0.847,4.711 -2.289,8.512 -7.004,8.532 l -33.816,-0.02 c -4.696,0 -9.211,-3.801 -10.067,-8.512 l -5.351,-29.437 c -0.813,-4.691 2.304,-8.531 7.039,-8.531 h 33.796 c 4.711,0 9.235,3.84 10.083,8.531" /><path
         id="path20"
         style="fill:#f9a612;fill-opacity:1;fill-rule:nonzero;stroke:none"
         d="m 1096.28,664.141 c 2.31,5.8 4,21.507 4,21.507 0.39,2.352 0.91,8.512 -4.77,10.223 -5.7,1.699 -19.2,-0.351 -19.2,8.488 0,3.063 10.59,55.11 11.69,71.786 1.11,16.675 0.1,38.648 -27.22,49.41 -9.93,3.914 -98.737,2.89 -98.737,2.89 -5.246,0.055 -10.016,-3.3 -10.656,-7.523 l -4.032,-18.719 c -0.64,-4.223 3.118,-7.676 8.372,-7.754 0,0 37.98,0 61.293,0 21.83,0 29.76,-4.207 30.21,-7.945 0.4,-3.766 0.98,-25.094 -8.23,-24.731 -8.12,0.332 -118.52,22.09 -118.52,-50.683 0,-12.66 -21.394,-17.379 -26.996,-8.828 -5.625,8.578 -34.339,37.293 -34.574,42.375 -0.293,5.078 47.512,29.785 57.688,70.328 0.953,3.742 1.609,13.496 -5.856,13.496 -5.371,0 -25.094,-0.016 -29.183,0.019 -3.899,0.04 -9.016,-0.91 -13.516,-10.234 -19.719,-45.57 -71.203,-56.004 -67.535,-39.058 1.203,5.527 59.898,330.112 59.898,330.112 0.848,4.69 -2.293,8.54 -7.023,8.54 h -33.797 c -4.715,0 -9.231,-3.85 -10.082,-8.54 L 728.469,664.551 c -0.871,-4.731 2.269,-8.551 7,-8.551 h 33.801 c 4.73,0 9.226,3.82 10.082,8.551 l 9.5,50.242 0.019,-0.039 c 2.813,7.23 6.981,10.394 16.211,10.394 33.371,0 50.414,-71.589 84.488,-72.168 20.532,-0.359 44.965,15.18 49.66,15.309 9.809,0.289 15.336,-15.309 48.196,-15.309 29.164,0 50.354,10.622 57.204,10.622 6.01,0 18.71,-6.481 25.05,-8.141 15.57,-4.152 24.34,2.867 26.6,8.68 z m -97.55,24.16 c -25.171,-1.223 -38.941,10.898 -38.941,22.711 0,16.191 24.922,21.386 45.071,20.672 20.16,-0.7 34.12,-5.106 33.6,-20.922 -0.4,-11.832 -18.44,-21.434 -39.73,-22.461" /><path
         id="path22"
         style="fill:#f9a612;fill-opacity:1;fill-rule:nonzero;stroke:none"
         d="m 468.551,652.449 c 2.484,1.192 4.07,2.711 5.41,3.199 1.09,0.391 3.184,0.25 5.957,-0.289 l 0.363,-0.097 c 23.407,-6.59 108.227,-29.282 129.09,69.437 0,0 57.606,315.651 57.703,316.381 0.469,3.71 7.082,43.83 62.828,25.02 18.77,-6.32 20.442,3.06 20.942,4.71 l 8.551,36.9 c 0.312,10.49 -8.106,8.11 -24.2,11.17 -12.347,2.33 -15.976,-4.25 -18.789,-5.63 -2.832,-1.31 -12.679,1.07 -27.301,1.77 -8.476,0.41 -59.492,-6.03 -69.789,-55.88 L 563.207,755.902 c -2.508,-9.097 -1.652,-94.781 -100.066,-46.461 -16.715,8.243 -23.09,3.918 -24.606,-4.769 -1.051,-6.133 -5.703,-37.231 -6.5,-43.594 -0.324,-2.617 1.613,-6.687 6.481,-7.437 5.175,-0.84 13.418,-2.039 17.492,-2.672 5.812,-0.86 9.402,-0.168 12.058,1.172 l 0.485,0.308" /><path
         id="path24"
         style="fill:#ee2630;fill-opacity:1;fill-rule:nonzero;stroke:none"
         d="m 1206.78,875.297 h 10.1 c 4.81,0 8.11,0.715 9.87,2.152 1.75,1.446 2.63,3.356 2.63,5.719 0,1.531 -0.42,2.879 -1.27,4.09 -0.86,1.215 -2.02,2.113 -3.52,2.695 -1.51,0.602 -4.29,0.895 -8.35,0.895 h -9.46 z m -8.32,-29.02 v 51.563 h 17.71 c 6.06,0 10.44,-0.481 13.14,-1.438 2.71,-0.941 4.87,-2.617 6.48,-4.972 1.6,-2.375 2.42,-4.899 2.42,-7.567 0,-3.758 -1.35,-7.043 -4.04,-9.836 -2.68,-2.804 -6.25,-4.355 -10.7,-4.703 1.83,-0.758 3.28,-1.672 4.38,-2.734 2.09,-2.035 4.63,-5.43 7.62,-10.219 l 6.3,-10.094 h -10.17 l -4.57,8.133 c -3.61,6.395 -6.51,10.399 -8.7,11.992 -1.51,1.192 -3.74,1.778 -6.67,1.778 h -4.88 v -21.903 z m 21.02,66.485 c -6.73,0 -13.29,-1.731 -19.67,-5.18 -6.36,-3.445 -11.34,-8.375 -14.95,-14.797 -3.61,-6.414 -5.39,-13.086 -5.39,-20.027 0,-6.906 1.77,-13.516 5.3,-19.852 3.54,-6.328 8.47,-11.254 14.83,-14.793 6.34,-3.539 12.97,-5.293 19.88,-5.293 6.89,0 13.52,1.754 19.87,5.293 6.34,3.539 11.28,8.465 14.8,14.793 3.51,6.336 5.26,12.946 5.26,19.852 0,6.941 -1.79,13.613 -5.36,20.027 -3.59,6.422 -8.57,11.352 -14.95,14.797 -6.4,3.449 -12.93,5.18 -19.62,5.18 z m 0,7.929 c 8.03,0 15.9,-2.054 23.56,-6.195 7.65,-4.121 13.63,-10.016 17.89,-17.707 4.28,-7.676 6.42,-15.699 6.42,-24.031 0,-8.262 -2.11,-16.192 -6.32,-23.824 -4.21,-7.614 -10.12,-13.528 -17.7,-17.735 -7.6,-4.222 -15.56,-6.316 -23.85,-6.316 -8.3,0 -16.25,2.094 -23.85,6.316 -7.61,4.207 -13.52,10.121 -17.75,17.735 -4.22,7.632 -6.34,15.562 -6.34,23.824 0,8.332 2.15,16.355 6.43,24.031 4.32,7.691 10.29,13.586 17.95,17.707 7.65,4.141 15.51,6.195 23.56,6.195" /><path
         id="path26"
         style="fill:#ee2630;fill-opacity:1;fill-rule:nonzero;stroke:none"
         d="m 326.809,287.16 h -39.582 v 92.801 h 36.644 c 19.375,0 26.5,-7.801 26.5,-20.34 v -9.48 c 0,-6.711 -2.949,-11.43 -10.328,-14.629 7.668,-1.813 13.648,-8.5 13.648,-17.16 v -9.032 c 0,-13.101 -8.371,-22.16 -26.882,-22.16 m 2.66,69.371 c 0,4.059 -2.528,6.559 -8.371,6.559 h -12.961 v -21.168 h 12.961 c 5.547,0 8.371,2.769 8.371,6.527 z m 3.32,-38.722 c 0,5.16 -3.187,7.8 -8.801,7.8 h -15.851 v -21.597 h 12.961 c 6.543,0 11.691,1.386 11.691,8.066 v 5.731" /><path
         id="path28"
         style="fill:#ee2630;fill-opacity:1;fill-rule:nonzero;stroke:none"
         d="m 436.188,379.961 v -65.762 c 0,-14.09 -8.754,-28.437 -34.961,-28.437 -26.227,0 -34.997,14.347 -34.997,28.437 v 65.762 h 20.922 v -63.84 c 0,-7.512 3.61,-11.801 14.075,-11.801 10.437,0 14.054,4.289 14.054,11.801 v 63.84 h 20.907" /><path
         id="path30"
         style="fill:#ee2630;fill-opacity:1;fill-rule:nonzero;stroke:none"
         d="m 454.313,379.961 h 20.886 V 287.16 h -20.886 v 92.801" /><path
         id="path32"
         style="fill:#ee2630;fill-opacity:1;fill-rule:nonzero;stroke:none"
         d="m 494.047,287.16 v 92.801 h 20.891 V 305.66 h 36.781 v -18.5 h -57.672" /><path
         id="path34"
         style="fill:#ee2630;fill-opacity:1;fill-rule:nonzero;stroke:none"
         d="M 599.531,287.16 H 563.57 v 92.801 h 35.961 c 22.864,0 31.344,-11.57 31.344,-24.102 V 311.25 c 0,-12.398 -8.48,-24.09 -31.344,-24.09 m 10.442,62.981 c 0,7.25 -2.508,11.281 -12.93,11.281 H 584.492 V 305.66 h 12.551 c 10.422,0 12.93,4.051 12.93,11.309 v 33.172" /><path
         id="path36"
         style="fill:#ee2630;fill-opacity:1;fill-rule:nonzero;stroke:none"
         d="m 647.613,379.961 h 20.879 V 287.16 h -20.879 v 92.801" /><path
         id="path38"
         style="fill:#ee2630;fill-opacity:1;fill-rule:nonzero;stroke:none"
         d="M 707.234,348.191 V 287.16 h -19.91 v 92.801 h 25.621 L 743.48,316 v 63.961 h 19.95 V 287.16 h -25.793 l -30.403,61.031" /><path
         id="path40"
         style="fill:#ee2630;fill-opacity:1;fill-rule:nonzero;stroke:none"
         d="m 813.434,285.762 c -22.575,0 -34.004,11.566 -34.004,28.437 v 38.723 c 0,17.156 11.429,28.437 34.004,28.437 10.761,0 21.738,-1.398 29.707,-2.929 l -2.532,-18.25 c -8.054,1.242 -20.48,2.218 -27.175,2.218 -10.422,0 -13.082,-5.418 -13.082,-12.679 v -31.91 c 0,-7.258 2.66,-13.239 13.082,-13.239 4.179,0 6.992,0.129 12.406,0.828 v 28.442 h 19.644 v -43.629 c -10.156,-2.922 -21.289,-4.449 -32.05,-4.449" /><path
         id="path42"
         style="fill:#ee2630;fill-opacity:1;fill-rule:nonzero;stroke:none"
         d="M 930.414,361.422 V 287.16 H 909.48 v 74.262 h -24.914 v 18.539 h 70.766 v -18.539 h -24.918" /><path
         id="path44"
         style="fill:#ee2630;fill-opacity:1;fill-rule:nonzero;stroke:none"
         d="m 999.254,316 h -12.25 v -28.84 h -20.906 v 92.801 h 38.572 c 22.59,0 30.94,-8.91 30.94,-26.32 v -11.45 c 0,-11.57 -4.15,-19.371 -13.49,-23.3 l 22.42,-31.731 h -24.81 z m 15.476,35.66 c 0,6.969 -2.65,9.781 -11.17,9.781 h -16.556 v -27.332 h 16.556 c 8.93,0 11.17,3.231 11.17,10.172 v 7.379" /><path
         id="path46"
         style="fill:#ee2630;fill-opacity:1;fill-rule:nonzero;stroke:none"
         d="m 1124.96,379.961 v -65.762 c 0,-14.09 -8.75,-28.437 -34.96,-28.437 -26.23,0 -35.02,14.347 -35.02,28.437 v 65.762 h 20.92 v -63.84 c 0,-7.512 3.61,-11.801 14.1,-11.801 10.44,0 14.05,4.289 14.05,11.801 v 63.84 h 20.91" /><path
         id="path48"
         style="fill:#ee2630;fill-opacity:1;fill-rule:nonzero;stroke:none"
         d="m 1169.57,285.762 c -10.74,0 -22.04,2.367 -29.96,5.976 l 3.48,16.192 c 8.5,-2.66 17.13,-4.469 26.74,-4.469 10.72,0 12.82,2.098 12.82,9.879 0,8.371 -0.39,9.359 -15.59,12.699 -22.44,4.871 -25.8,9.332 -25.8,29.41 0,18.531 6.57,25.91 32.07,25.91 8.06,0 17.84,-0.839 28.13,-3.05 l -2.08,-17.571 c -10.62,1.813 -17.43,2.633 -25.78,2.633 -9.35,0 -11.44,-1.66 -11.44,-8.492 0,-8.93 0.41,-9.059 15.05,-12.539 25.1,-6 26.36,-10.891 26.36,-29.129 0,-18.371 -6,-27.449 -34,-27.449" /><path
         id="path50"
         style="fill:#ee2630;fill-opacity:1;fill-rule:nonzero;stroke:none"
         d="M 1256.66,361.422 V 287.16 h -20.93 v 74.262 h -24.94 v 18.539 h 70.81 v -18.539 h -24.94" /></g></g></svg>